<svg width="21" height="12" viewBox="0 0 21 12" fill="none" xmlns="http://www.w3.org/2000/svg">
<path d="M0.958807 9H6.48153V7.86648H2.27557V5.1946H6.14489V4.06534H2.27557V1.40625H6.4304V0.272727H0.958807V9ZM9.36115 5.11364C9.36115 4.0696 10.0004 3.47301 10.8867 3.47301C11.7518 3.47301 12.2759 4.03977 12.2759 4.99006V9H13.5501V4.83665C13.5501 3.21733 12.6594 2.36932 11.3214 2.36932C10.337 2.36932 9.69354 2.82528 9.39098 3.51989H9.31001V2.45455H8.087V9H9.36115V5.11364ZM18.0032 11.5909C19.6694 11.5909 20.9563 10.8281 20.9563 9.14489V2.45455H19.7077V3.51562H19.614C19.3881 3.1108 18.9364 2.36932 17.7177 2.36932C16.1367 2.36932 14.9734 3.6179 14.9734 5.7017C14.9734 7.78977 16.1623 8.90199 17.7092 8.90199C18.9109 8.90199 19.3754 8.22443 19.6055 7.80682H19.6864V9.09375C19.6864 10.1207 18.9833 10.5639 18.016 10.5639C16.9549 10.5639 16.5415 10.0312 16.3157 9.65625L15.2205 10.108C15.5657 10.9091 16.4393 11.5909 18.0032 11.5909ZM17.9904 7.84517C16.8526 7.84517 16.2603 6.97159 16.2603 5.68466C16.2603 4.42756 16.8398 3.4517 17.9904 3.4517C19.1026 3.4517 19.6992 4.35938 19.6992 5.68466C19.6992 7.03551 19.0898 7.84517 17.9904 7.84517Z" fill="#D1D1D7"/>
</svg>
